<svg width="512" height="512" viewBox="0 0 512 512" xmlns="http://www.w3.org/2000/svg">
  <defs>
    <!-- Clip path for left half -->
    <clipPath id="leftHalf">
      <rect x="0" y="0" width="256" height="512"/>
    </clipPath>
    <!-- Clip path for right half -->
    <clipPath id="rightHalf">
      <rect x="256" y="0" width="256" height="512"/>
    </clipPath>
  </defs>
  
  <!-- White circle background for ruler - fills entire canvas -->
  <circle cx="256" cy="256" r="256" fill="white"/>
  
  <!-- GitHub icon - scaled larger, then clipped to show left half only -->
  <g clip-path="url(#leftHalf)">
    <g transform="translate(38.4, 28) scale(28.5)">
      <path fill-rule="evenodd" clip-rule="evenodd" d="M8 0C3.58 0 0 3.58 0 8C0 11.54 2.29 14.53 5.47 15.59C5.87 15.66 6.02 15.42 6.02 15.21C6.02 15.02 6.01 14.39 6.01 13.72C4 14.09 3.48 13.23 3.32 12.78C3.23 12.55 2.84 11.84 2.5 11.65C2.22 11.5 1.82 11.13 2.49 11.12C3.12 11.11 3.57 11.7 3.72 11.94C4.44 13.15 5.59 12.81 6.05 12.6C6.12 12.08 6.33 11.73 6.56 11.53C4.78 11.33 2.92 10.64 2.92 7.58C2.92 6.71 3.23 5.99 3.74 5.43C3.66 5.23 3.38 4.41 3.82 3.31C3.82 3.31 4.49 3.1 6.02 4.13C6.66 3.95 7.34 3.86 8.02 3.86C8.7 3.86 9.38 3.95 10.02 4.13C11.55 3.09 12.22 3.31 12.22 3.31C12.66 4.41 12.38 5.23 12.3 5.43C12.81 5.99 13.12 6.7 13.12 7.58C13.12 10.65 11.25 11.33 9.47 11.53C9.76 11.78 10.01 12.26 10.01 13.01C10.01 14.08 10 14.94 10 15.21C10 15.42 10.15 15.67 10.55 15.59C13.71 14.53 16 11.53 16 8C16 3.58 12.42 0 8 0Z" fill="#1B1F23"/>
    </g>
  </g>
  
  <!-- GitLab icon - scaled larger (matching GitHub), then clipped to show right half only -->
  <g clip-path="url(#rightHalf)">
    <g transform="translate(256, 270) scale(1.78)">
      <g transform="translate(-128, -118)">
        <path d="M128.075 236.075l47.104-144.97H80.97l47.104 144.97z" fill="#E24329"/>
        <path d="M128.075 236.074L80.97 91.104H14.956l113.119 144.97z" fill="#FC6D26"/>
        <path d="M14.956 91.104L.642 135.16a9.752 9.752 0 0 0 3.542 10.903l123.891 90.012-113.12-144.97z" fill="#FCA326"/>
        <path d="M14.956 91.105H80.97L52.601 3.79c-1.46-4.493-7.816-4.492-9.275 0l-28.37 87.315z" fill="#E24329"/>
        <path d="M128.075 236.074l47.104-144.97h66.015l-113.12 144.97z" fill="#FC6D26"/>
        <path d="M241.194 91.104l14.314 44.056a9.752 9.752 0 0 1-3.543 10.903l-123.89 90.012 113.119-144.97z" fill="#FCA326"/>
        <path d="M241.194 91.105h-66.015l28.37-87.315c1.46-4.493 7.816-4.492 9.275 0l28.37 87.315z" fill="#E24329"/>
      </g>
    </g>
  </g>
  
  <!-- Ruler icon in the middle (on top) -->
  <g transform="translate(28, 0) scale(28.5, 32.0)">
    <!-- Vertical line (no end caps) -->
    <rect x="7.25" y="2" width="1.5" height="12" fill="#1f883d"/>
    <!-- Top cap (slightly curved) -->
    <rect x="5" y="2" width="6" height="1.125" rx="0.3" ry="0.3" fill="#1f883d"/>
    <!-- Bottom cap (slightly curved) -->
    <rect x="5" y="12.875" width="6" height="1.125" rx="0.3" ry="0.3" fill="#1f883d"/>
    <!-- Middle mark (slightly curved, same as other two lines) -->
    <rect x="6" y="7.625" width="4" height="0.75" rx="0.3" ry="0.3" fill="#1f883d"/>
    <!-- Line between top and middle (slightly curved, same width as middle) -->
    <rect x="6" y="5" width="4" height="0.75" rx="0.3" ry="0.3" fill="#1f883d"/>
    <!-- Line between middle and bottom (slightly curved, same width as middle) -->
    <rect x="6" y="10.25" width="4" height="0.75" rx="0.3" ry="0.3" fill="#1f883d"/>
  </g>
</svg>
